<?xml version="1.0" encoding="UTF-8"?>
<svg width="25px" height="34px" viewBox="0 0 25 34" version="1.1" xmlns="http://www.w3.org/2000/svg" xmlns:xlink="http://www.w3.org/1999/xlink">
    <!-- Generator: Sketch 42 (36781) - http://www.bohemiancoding.com/sketch -->
    <title>Shape</title>
    <desc>Created with Sketch.</desc>
    <defs></defs>
    <g id="Symbols" stroke="none" stroke-width="1" fill="none" fill-rule="evenodd">
        <g id="Chat-section" transform="translate(-148.000000, -6.000000)" fill="#79B4E2">
            <path d="M172.697438,30.9391103 C172.70362,30.8958307 172.731443,30.858734 172.734534,30.812363 C172.737626,30.7752662 172.715986,30.7412608 172.712895,30.7010726 C172.709803,30.5403199 172.675798,30.3888413 172.623244,30.2373628 C172.601604,30.1724434 172.59233,30.1106155 172.561416,30.0487875 C172.462491,29.8478466 172.329561,29.6623626 172.140986,29.5139755 L162.869881,22.2306401 L172.140986,14.9473047 C172.335744,14.7927347 172.468674,14.5979766 172.567599,14.3877615 C172.595421,14.3259335 172.607787,14.2641056 172.626335,14.2022776 C172.678889,14.0353421 172.706712,13.8745893 172.70362,13.6983796 C172.70362,13.6551 172.728352,13.6180032 172.722169,13.5716322 C172.719077,13.5376269 172.691255,13.5098043 172.688163,13.4757989 C172.660341,13.3026806 172.595421,13.1450192 172.508862,12.9873579 C172.477948,12.9286213 172.462491,12.8698847 172.425395,12.8204224 C172.41612,12.8049654 172.413029,12.786417 172.400663,12.7740514 C172.26155,12.5947502 172.088432,12.4618201 171.896765,12.3628953 C171.887491,12.3598039 171.8844,12.3505297 171.875126,12.3443469 L159.509531,6.16154948 C159.030364,5.92351178 158.461546,5.95133437 158.007111,6.22646886 C157.552675,6.51087754 157.274449,7.00859274 157.274449,7.54340472 L157.274449,17.8315797 L150.501195,12.5081911 C149.82727,11.9857447 148.856571,12.097035 148.331033,12.77096 C147.802404,13.4417935 147.919877,14.4124927 148.59071,14.9411219 L157.274449,21.7638389 L157.274449,22.6881671 L148.59071,29.5108841 C147.919877,30.0395133 147.802404,31.0102125 148.331033,31.681046 C148.637081,32.0705623 149.088425,32.2715032 149.549044,32.2715032 C149.882915,32.2715032 150.219877,32.1633042 150.504286,31.9438149 L157.277541,26.6204263 L157.277541,38.4543006 C157.277541,39.0169352 157.583589,39.5362902 158.075122,39.8083333 C158.306977,39.938172 158.566654,40 158.82324,40 C159.107649,40 159.392057,39.922715 159.642461,39.7650537 L172.008056,32.0365569 C172.082249,31.9901859 172.119346,31.9129009 172.184265,31.8572557 C172.255368,31.7954278 172.345018,31.758331 172.403755,31.681046 C172.428486,31.650132 172.434669,31.6130352 172.456309,31.5790299 C172.502679,31.5079277 172.533593,31.4337341 172.567599,31.3564491 C172.632518,31.223519 172.678889,31.0874975 172.697438,30.9391103 L172.697438,30.9391103 Z M160.372031,10.0474377 L168.316926,14.0229765 L160.372031,20.2676019 L160.372031,10.0474377 L160.372031,10.0474377 Z M160.372031,24.1967697 L168.505501,30.5866909 L160.372031,35.6689504 L160.372031,24.1967697 L160.372031,24.1967697 Z" id="Shape"></path>
        </g>
    </g>
</svg>