<?xml version="1.0" encoding="UTF-8"?>
<svg width="26px" height="25px" viewBox="0 0 26 25" version="1.1" xmlns="http://www.w3.org/2000/svg" xmlns:xlink="http://www.w3.org/1999/xlink">
    <!-- Generator: Sketch 42 (36781) - http://www.bohemiancoding.com/sketch -->
    <title>budicon-conversation</title>
    <desc>Created with Sketch.</desc>
    <defs></defs>
    <g id="Symbols" stroke="none" stroke-width="1" fill="none" fill-rule="evenodd">
        <g id="Tab-Bar" transform="translate(-228.000000, -12.000000)">
            <g id="budicon-conversation" transform="translate(228.111111, 12.000000)">
                <g id="Group">
                    <path d="M23.5,16 C23.776,16 24,15.776 24,15.5 L24,1 C24,0.724 23.776,0.5 23.5,0.5 L21,0.5 L21,12.998 C21,14.655 19.657,15.998 18,15.998 L13,15.998 L13,16 L14.163,16 C14.489,16 14.811,16.109 15.071,16.306 L19.997,19.997 L20,16.7 C20,16.314 20.314,16 20.7,16 L23.5,16 L23.5,16 Z" id="Shape" fill="#F5F4FF"></path>
                    <path d="M14.333,17 L5.5,17 C4.671,17 4,16.328 4,15.5 L4,5 L3,5 L3,6 L3,16.5 C3,17.328 3.671,18 4.5,18 L13,18 L15.666,20 L18.333,20 L14.333,17 L14.333,17 Z" id="Shape" fill="#F5F4FF"></path>
                    <path d="M23.5,0.002 L5.5,0.002 C4.671,0.002 4,0.674 4,1.502 L4,4 L1.5,4 C0.671,4 0,4.672 0,5.5 L0,19.498 C0,20.327 0.671,20.998 1.5,20.998 L4,20.998 L4,24 C4,24.592 4.486,25.002 5.004,25.002 C5.207,25.002 5.414,24.94 5.6,24.8 L10.666,20.998 L19.983,21 C19.987,21 19.991,21.002 19.996,21.002 C20.126,21.002 20.254,20.976 20.372,20.928 C20.388,20.92 20.4,20.909 20.415,20.9 C20.747,20.747 21,20.424 21,20 L21,17 L23.5,17 C24.329,17 25,16.328 25,15.5 L25,1.502 C25,0.674 24.329,0.002 23.5,0.002 L23.5,0.002 Z M10.331,20 L5,24 L5,20 L1.5,19.998 C1.224,19.998 1,19.774 1,19.498 L1,5.5 C1,5.225 1.224,5 1.5,5 L4,5 L4,15.5 C4,16.328 4.671,17 5.5,17 L14.333,17 L18.333,20 L10.331,20 L10.331,20 Z M24,15.5 C24,15.776 23.776,16 23.5,16 L20,16 L20,20 L20,20 L14.667,16 L5.5,16 C5.224,16 5,15.776 5,15.5 L5,1.502 C5,1.226 5.224,1.002 5.5,1.002 L23.5,1.002 C23.776,1.002 24,1.226 24,1.502 L24,15.5 L24,15.5 Z" id="Shape" fill="#79B4E2"></path>
                </g>
            </g>
        </g>
    </g>
</svg>