<?xml version="1.0" encoding="UTF-8"?>
<svg width="33px" height="34px" viewBox="0 0 33 34" version="1.1" xmlns="http://www.w3.org/2000/svg" xmlns:xlink="http://www.w3.org/1999/xlink">
    <!-- Generator: Sketch 42 (36781) - http://www.bohemiancoding.com/sketch -->
    <title>budicon-group</title>
    <desc>Created with Sketch.</desc>
    <defs></defs>
    <g id="Symbols" stroke="none" stroke-width="1" fill="none" fill-rule="evenodd">
        <g id="Chat-section" transform="translate(-194.000000, -7.000000)">
            <g id="budicon-group" transform="translate(194.234836, 7.000000)">
                <g id="Group" transform="translate(-0.000000, 0.000000)">
                    <path d="M9.52,27.88 C9.52,28.25536 9.21536,28.56 8.84,28.56 L4.76,28.56 C4.38464,28.56 4.08,28.25536 4.08,27.88 L4.08,21.76 C4.08,21.00928 3.47072,20.4 2.72,20.4 L2.04,20.4 C1.66464,20.4 1.36,20.09536 1.36,19.72 L1.36,16.32 C1.36,13.31984 3.79984,10.88 6.8,10.88 C8.636,10.88 10.25712,11.80072 11.24176,13.1988 L11.24176,13.1988 C10.18368,14.39696 9.52,15.95416 9.52,17.68 L9.52,21.79944 L9.52,22.44 L9.52,27.88 L9.52,27.88 Z" id="Shape" fill="#F5F4FF"></path>
                    <path d="M31.28,19.72 C31.28,20.09536 30.97536,20.4 30.6,20.4 L29.92,20.4 C29.16928,20.4 28.56,21.00928 28.56,21.76 L28.56,27.88 C28.56,28.25536 28.25536,28.56 27.88,28.56 L23.8,28.56 C23.42464,28.56 23.12,28.25536 23.12,27.88 L23.12,22.44 L23.12,22.01568 L23.12,17.68 C23.12,15.95416 22.45632,14.39696 21.39824,13.1988 L21.39824,13.1988 C22.38288,11.80072 24.004,10.88 25.84,10.88 C28.84016,10.88 31.28,13.31984 31.28,16.32 L31.28,19.72 L31.28,19.72 Z" id="Shape" fill="#F5F4FF"></path>
                    <g id="Shape" fill="#79B4E2">
                        <path d="M16.32,9.52 C18.57352,9.52 20.4,7.69352 20.4,5.44 C20.4,3.18648 18.57352,1.36 16.32,1.36 C14.06648,1.36 12.24,3.18648 12.24,5.44 C12.24,7.69352 14.06648,9.52 16.32,9.52 L16.32,9.52 Z M16.32,2.72 C17.82008,2.72 19.04,3.93992 19.04,5.44 C19.04,6.94008 17.82008,8.16 16.32,8.16 C14.81992,8.16 13.6,6.94008 13.6,5.44 C13.6,3.93992 14.81992,2.72 16.32,2.72 L16.32,2.72 Z"></path>
                        <path d="M25.84,8.16 C28.09352,8.16 29.92,6.33352 29.92,4.08 C29.92,1.82648 28.09352,0 25.84,0 C23.58648,0 21.76,1.82648 21.76,4.08 C21.76,6.33352 23.58648,8.16 25.84,8.16 L25.84,8.16 Z M25.84,1.36 C27.34008,1.36 28.56,2.57992 28.56,4.08 C28.56,5.58008 27.34008,6.8 25.84,6.8 C24.33992,6.8 23.12,5.58008 23.12,4.08 C23.12,2.57992 24.33992,1.36 25.84,1.36 L25.84,1.36 Z"></path>
                        <path d="M6.8,8.16 C9.05352,8.16 10.88,6.33352 10.88,4.08 C10.88,1.82648 9.05352,0 6.8,0 C4.54648,0 2.72,1.82648 2.72,4.08 C2.72,6.33352 4.54648,8.16 6.8,8.16 L6.8,8.16 Z M6.8,1.36 C8.30008,1.36 9.52,2.57992 9.52,4.08 C9.52,5.58008 8.30008,6.8 6.8,6.8 C5.29992,6.8 4.08,5.58008 4.08,4.08 C4.08,2.57992 5.29992,1.36 6.8,1.36 L6.8,1.36 Z"></path>
                        <path d="M25.84,9.52 C23.60688,9.52 21.64304,10.61072 20.40272,12.27264 C20.40408,12.27264 20.40408,12.274 20.40408,12.274 C19.26576,11.41176 17.86088,10.88 16.32,10.88 C14.77912,10.88 13.37424,11.41176 12.23456,12.27536 C12.23456,12.27536 12.23592,12.274 12.23728,12.274 C10.99696,10.61072 9.03312,9.52 6.8,9.52 C3.04504,9.52 0,12.56504 0,16.32 L0,19.72 C0,20.84608 0.91392,21.76 2.04,21.76 L2.72,21.76 L2.72,27.88 C2.72,29.00608 3.63392,29.92 4.76,29.92 L8.84,29.92 C9.96608,29.92 10.88,29.00608 10.88,27.88 L10.88,24.35488 C11.09352,24.43104 11.32064,24.48 11.56,24.48 L12.24,24.48 L12.24,31.96 C12.24,33.08608 13.15392,34 14.28,34 L18.36,34 C19.48608,34 20.4,33.08608 20.4,31.96 L20.4,24.48 L21.08,24.48 C21.31936,24.48 21.54648,24.43104 21.76,24.35488 L21.76,27.88 C21.76,29.00608 22.67392,29.92 23.8,29.92 L27.88,29.92 C29.00608,29.92 29.92,29.00608 29.92,27.88 L29.92,21.76 L30.6,21.76 C31.72608,21.76 32.64,20.84608 32.64,19.72 L32.64,16.32 C32.64,12.56504 29.59496,9.52 25.84,9.52 L25.84,9.52 Z M9.52,27.88 C9.52,28.25536 9.21536,28.56 8.84,28.56 L4.76,28.56 C4.38464,28.56 4.08,28.25536 4.08,27.88 L4.08,21.76 C4.08,21.00928 3.47072,20.4 2.72,20.4 L2.04,20.4 C1.66464,20.4 1.36,20.09536 1.36,19.72 L1.36,16.32 C1.36,13.31984 3.79984,10.88 6.8,10.88 C8.636,10.88 10.25712,11.80072 11.24176,13.1988 L11.24176,13.1988 C10.18368,14.39696 9.52,15.95416 9.52,17.68 L9.52,21.79944 L9.52,22.44 L9.52,27.88 L9.52,27.88 Z M21.08,23.12 L20.4,23.12 C19.64928,23.12 19.04,23.72928 19.04,24.48 L19.04,31.96 C19.04,32.33536 18.73536,32.64 18.36,32.64 L14.28,32.64 C13.90464,32.64 13.6,32.33536 13.6,31.96 L13.6,24.48 C13.6,23.72928 12.99072,23.12 12.24,23.12 L11.56,23.12 C11.18464,23.12 10.88,22.81536 10.88,22.44 L10.88,17.68 C10.88,14.67984 13.31984,12.24 16.32,12.24 C19.32016,12.24 21.76,14.67984 21.76,17.68 L21.76,22.44 C21.76,22.81536 21.45536,23.12 21.08,23.12 L21.08,23.12 Z M31.28,19.72 C31.28,20.09536 30.97536,20.4 30.6,20.4 L29.92,20.4 C29.16928,20.4 28.56,21.00928 28.56,21.76 L28.56,27.88 C28.56,28.25536 28.25536,28.56 27.88,28.56 L23.8,28.56 C23.42464,28.56 23.12,28.25536 23.12,27.88 L23.12,22.44 L23.12,22.01568 L23.12,17.68 C23.12,15.95416 22.45632,14.39696 21.39824,13.1988 L21.39824,13.1988 C22.38288,11.80072 24.004,10.88 25.84,10.88 C28.84016,10.88 31.28,13.31984 31.28,16.32 L31.28,19.72 L31.28,19.72 Z"></path>
                    </g>
                </g>
            </g>
        </g>
    </g>
</svg>