<?xml version="1.0" encoding="utf-8"?>
<!-- Generator: Adobe Illustrator 21.0.1, SVG Export Plug-In . SVG Version: 6.00 Build 0)  -->
<svg version="1.1" id="Layer_1" xmlns="http://www.w3.org/2000/svg" xmlns:xlink="http://www.w3.org/1999/xlink" x="0px" y="0px"
	 viewBox="0 0 400 50" style="enable-background:new 0 0 400 50;" xml:space="preserve">
<style type="text/css">
	.st0{fill:#FFFFFF;}
</style>
<g>
	<g>
		<path class="st0" d="M73.9,11.2c0-0.4,0.4-0.7,0.7-0.7h1l16.8,17.8l0,0V11.6c0-0.4,0.4-0.7,0.7-0.7h3.7c0.4,0,0.7,0.4,0.7,0.7
			v27.2c0,0.4-0.4,0.7-0.7,0.7H96L79.1,21l0,0v17.4c0,0.4-0.4,0.7-0.7,0.7h-3.7c-0.4,0-0.7-0.4-0.7-0.7L73.9,11.2L73.9,11.2z"/>
		<path class="st0" d="M116.2,11.6c0-0.4,0.4-0.7,0.7-0.7h16.4c0.5,0,0.7,0.4,0.7,0.7v3.3c0,0.4-0.4,0.7-0.7,0.7h-11.9v6.6h10
			c0.4,0,0.7,0.4,0.7,0.7v3.3c0,0.5-0.4,0.7-0.7,0.7h-10v7.1h11.9c0.5,0,0.7,0.4,0.7,0.7v3.3c0,0.4-0.4,0.7-0.7,0.7H117
			c-0.5,0-0.7-0.4-0.7-0.7C116.2,38.1,116.2,11.6,116.2,11.6z"/>
		<path class="st0" d="M155,15.7h-6.2c-0.5,0-0.7-0.4-0.7-0.7v-3.3c0-0.4,0.4-0.7,0.7-0.7h17.6c0.5,0,0.7,0.4,0.7,0.7V15
			c0,0.4-0.4,0.7-0.7,0.7h-6.2v22.7c0,0.4-0.4,0.7-0.7,0.7h-3.9c-0.4,0-0.7-0.4-0.7-0.7V15.7z"/>
		<path class="st0" d="M180.1,11.9c-0.2-0.6,0.2-1,0.7-1h3.7c0.4,0,0.6,0.3,0.7,0.6l4.2,16.1h0.2l6.4-16.6c0.1-0.3,0.3-0.5,0.6-0.5
			h0.7c0.4,0,0.6,0.2,0.6,0.5l6.4,16.6h0.2l4.1-16.1c0.1-0.3,0.4-0.6,0.7-0.6h3.7c0.6,0,0.9,0.4,0.7,1L206.3,39
			c-0.1,0.4-0.4,0.6-0.7,0.6H205c-0.4,0-0.6-0.2-0.6-0.5l-7.3-18.3h-0.2l-7.2,18.3c-0.1,0.3-0.3,0.5-0.6,0.5h-0.6
			c-0.4,0-0.6-0.3-0.7-0.6L180.1,11.9z"/>
		<path class="st0" d="M242.3,10.5c8.1,0,14.5,6.5,14.5,14.6s-6.4,14.5-14.5,14.5c-8.1,0-14.5-6.4-14.5-14.5S234.3,10.5,242.3,10.5z
			 M242.3,34.3c5.1,0,9.3-4.1,9.3-9.3c0-5.1-4.2-9.4-9.3-9.4c-5.1,0-9.3,4.2-9.3,9.4C233.1,30.1,237.2,34.3,242.3,34.3z"/>
		<path class="st0" d="M273.3,11.6c0-0.4,0.4-0.7,0.7-0.7h11.6c4.9,0,8.8,3.9,8.8,8.7c0,3.7-2.5,6.7-6,8.2L294,38
			c0.3,0.6,0,1.2-0.6,1.2h-4.2c-0.4,0-0.6-0.2-0.6-0.4l-5.3-10.7h-4.5v10.3c0,0.4-0.4,0.7-0.7,0.7h-3.7c-0.5,0-0.7-0.4-0.7-0.7V11.6
			H273.3z M285.1,23.7c2.1,0,4-1.8,4-4.1c0-2.1-1.8-3.9-4-3.9h-6.6v8L285.1,23.7L285.1,23.7z"/>
		<path class="st0" d="M311.3,11.9c0-0.6,0.4-1,1-1h3.6c0.6,0,1,0.5,1,1v10.9l10.2-11.5c0.2-0.2,0.4-0.4,0.7-0.4h4
			c0.7,0,1.2,0.8,0.6,1.5L322,24.3l11.3,13.5c0.4,0.6,0.1,1.4-0.7,1.4h-4.4c-0.4,0-0.6-0.2-0.7-0.3l-10.6-13v12.3c0,0.6-0.5,1-1,1
			h-3.6c-0.6,0-1-0.5-1-1L311.3,11.9L311.3,11.9z"/>
	</g>
	<g>
		<path class="st0" d="M349.1,11.6c0-0.4,0.4-0.7,0.7-0.7h9.6c7.8,0,14.1,6.3,14.1,14.1c0,7.8-6.3,14.1-14.1,14.1h-9.6
			c-0.4,0-0.7-0.4-0.7-0.7V11.6z M358.9,34.2c5.2,0,9.1-3.9,9.1-9.3c0-5.2-3.9-9.2-9.1-9.2h-4.6v18.5H358.9z"/>
	</g>
</g>
<g>
	<path class="st0" d="M39.7,48.5c-0.6,0-1.6-0.7-5.2-3.2c-2.2-1.5-5.2-3.7-9-6.3c-6.5-4.6-13-9.3-13-9.3c-0.7-0.5-0.9-1.5-0.4-2.3
		c0.5-0.7,1.5-0.9,2.3-0.4c7.5,5.4,18.8,13.4,23.6,16.8V7l-7.4,6.2C30,13.8,29,13.7,28.4,13s-0.5-1.7,0.2-2.3L41.3,0v47.8l-0.9,0.5
		C40.2,48.4,40,48.5,39.7,48.5z"/>
	<path class="st0" d="M0.9,50V2.5L1.8,2c1-0.5,1-0.5,5.9,2.9c2.2,1.5,5.2,3.7,9,6.3c6.5,4.6,13,9.3,13,9.3c0.7,0.5,0.9,1.5,0.4,2.3
		c-0.5,0.7-1.5,0.9-2.3,0.4C20.3,17.8,9,9.8,4.1,6.5v37.3l7.5-5.3c0.7-0.5,1.7-0.4,2.3,0.4c0.5,0.7,0.4,1.7-0.4,2.3L0.9,50z"/>
</g>
</svg>
