<?xml version="1.0" encoding="utf-8"?>
<!-- Generator: Adobe Illustrator 21.0.1, SVG Export Plug-In . SVG Version: 6.00 Build 0)  -->
<svg version="1.1" id="Layer_1" xmlns="http://www.w3.org/2000/svg" xmlns:xlink="http://www.w3.org/1999/xlink" x="0px" y="0px"
	 viewBox="0 0 400 50" style="enable-background:new 0 0 400 50;" xml:space="preserve">
<style type="text/css">
	.st0{fill:#010101;}
</style>
<g>
	<g>
		<path class="st0" d="M68.9,10c0-0.4,0.4-0.8,0.8-0.8h1.1l18.3,19.4l0,0V10.4c0-0.4,0.4-0.8,0.8-0.8h4c0.4,0,0.8,0.4,0.8,0.8V40
			c0,0.4-0.4,0.8-0.8,0.8H93L74.6,20.6l0,0v18.9c0,0.4-0.4,0.8-0.8,0.8h-4c-0.4,0-0.8-0.4-0.8-0.8L68.9,10L68.9,10z"/>
		<path class="st0" d="M115,10.4c0-0.4,0.4-0.8,0.8-0.8h17.9c0.5,0,0.8,0.4,0.8,0.8V14c0,0.4-0.4,0.8-0.8,0.8h-13V22h10.9
			c0.4,0,0.8,0.4,0.8,0.8v3.6c0,0.5-0.4,0.8-0.8,0.8h-10.9v7.7h13c0.5,0,0.8,0.4,0.8,0.8v3.6c0,0.4-0.4,0.8-0.8,0.8h-17.9
			c-0.5,0-0.8-0.4-0.8-0.8C115,39.3,115,10.4,115,10.4z"/>
		<path class="st0" d="M157.2,14.9h-6.7c-0.5,0-0.8-0.4-0.8-0.8v-3.6c0-0.4,0.4-0.8,0.8-0.8h19.2c0.5,0,0.8,0.4,0.8,0.8v3.6
			c0,0.4-0.4,0.8-0.8,0.8H163v24.7c0,0.4-0.4,0.8-0.8,0.8H158c-0.4,0-0.8-0.4-0.8-0.8V14.9z"/>
		<path class="st0" d="M184.5,10.7c-0.2-0.6,0.2-1.1,0.8-1.1h4c0.4,0,0.7,0.3,0.8,0.6l4.6,17.5h0.2l7-18.1c0.1-0.3,0.3-0.5,0.7-0.5
			h0.8c0.4,0,0.7,0.2,0.7,0.5l7,18.1h0.2l4.5-17.5c0.1-0.3,0.4-0.6,0.8-0.6h4c0.6,0,1,0.4,0.8,1.1l-8.3,29.5
			c-0.1,0.4-0.4,0.6-0.8,0.6h-0.7c-0.4,0-0.7-0.2-0.7-0.5L203,20.4h-0.2L195,40.3c-0.1,0.3-0.3,0.5-0.7,0.5h-0.7
			c-0.4,0-0.7-0.3-0.8-0.6L184.5,10.7z"/>
		<path class="st0" d="M252.2,9.2c8.8,0,15.8,7.1,15.8,15.9s-7,15.8-15.8,15.8s-15.8-7-15.8-15.8S243.5,9.2,252.2,9.2z M252.2,35.1
			c5.5,0,10.1-4.5,10.1-10.1c0-5.5-4.6-10.2-10.1-10.2c-5.5,0-10.1,4.6-10.1,10.2C242.2,30.6,246.7,35.1,252.2,35.1z"/>
		<path class="st0" d="M286,10.4c0-0.4,0.4-0.8,0.8-0.8h12.6c5.3,0,9.6,4.2,9.6,9.5c0,4-2.7,7.3-6.5,8.9l6,11.2
			c0.3,0.6,0,1.3-0.7,1.3h-4.6c-0.4,0-0.6-0.2-0.7-0.4l-5.8-11.6h-4.9v11.2c0,0.4-0.4,0.8-0.8,0.8h-4c-0.5,0-0.8-0.4-0.8-0.8V10.4
			H286z M298.9,23.6c2.3,0,4.4-2,4.4-4.5c0-2.3-2-4.3-4.4-4.3h-7.2v8.7L298.9,23.6L298.9,23.6z"/>
		<path class="st0" d="M327.4,10.7c0-0.6,0.4-1.1,1.1-1.1h3.9c0.6,0,1.1,0.5,1.1,1.1v11.9l11.1-12.5c0.2-0.2,0.4-0.4,0.8-0.4h4.4
			c0.8,0,1.3,0.9,0.7,1.6L339,24.2l12.3,14.7c0.4,0.6,0.1,1.5-0.8,1.5h-4.8c-0.4,0-0.7-0.2-0.8-0.3l-11.5-14.2v13.4
			c0,0.6-0.5,1.1-1.1,1.1h-3.9c-0.6,0-1.1-0.5-1.1-1.1L327.4,10.7L327.4,10.7z"/>
	</g>
	<g>
		<path class="st0" d="M368.5,10.4c0-0.4,0.4-0.8,0.8-0.8h10.4c8.5,0,15.4,6.9,15.4,15.3c0,8.5-6.9,15.4-15.4,15.4h-10.4
			c-0.4,0-0.8-0.4-0.8-0.8V10.4z M379.2,35c5.7,0,9.9-4.3,9.9-10.1c0-5.7-4.2-10-9.9-10h-5V35H379.2z"/>
	</g>
</g>
<g>
	<path d="M39.7,48.5c-0.6,0-1.6-0.7-5.2-3.2c-2.2-1.5-5.2-3.7-9-6.3c-6.5-4.6-13-9.3-13-9.3c-0.7-0.5-0.9-1.5-0.4-2.3
		c0.5-0.7,1.5-0.9,2.3-0.4c7.5,5.4,18.8,13.4,23.6,16.8V7l-7.4,6.2C30,13.8,29,13.7,28.4,13c-0.6-0.7-0.5-1.7,0.2-2.3L41.3,0v47.8
		l-0.9,0.5C40.2,48.4,40,48.5,39.7,48.5z"/>
	<path d="M0.9,50V2.5L1.8,2c1-0.5,1-0.5,5.9,2.9c2.2,1.5,5.2,3.7,9,6.3c6.5,4.6,13,9.3,13,9.3c0.7,0.5,0.9,1.5,0.4,2.3
		c-0.5,0.7-1.5,0.9-2.3,0.4C20.3,17.8,9,9.8,4.1,6.5v37.3l7.5-5.3c0.7-0.5,1.7-0.4,2.3,0.4c0.5,0.7,0.4,1.7-0.4,2.3L0.9,50z"/>
</g>
</svg>
