<?xml version="1.0" encoding="utf-8"?>
<!-- Generator: Adobe Illustrator 16.0.0, SVG Export Plug-In . SVG Version: 6.00 Build 0)  -->
<!DOCTYPE svg PUBLIC "-//W3C//DTD SVG 1.1//EN" "http://www.w3.org/Graphics/SVG/1.1/DTD/svg11.dtd">
<svg version="1.1" id="Layer_1" xmlns="http://www.w3.org/2000/svg" xmlns:xlink="http://www.w3.org/1999/xlink" x="0px" y="0px"
	 width="450px" height="306px" viewBox="0 0 450 306" enable-background="new 0 0 450 306" xml:space="preserve">
<g>
	<g>
		<path d="M83.138,137.419c0-0.45,0.45-0.788,0.787-0.788h1.125l18.9,20.025l0,0v-18.788c0-0.45,0.45-0.787,0.787-0.787h4.163
			c0.45,0,0.788,0.45,0.788,0.787v30.6c0,0.449-0.45,0.787-0.788,0.787H108l-19.013-20.812l0,0v19.576
			c0,0.449-0.45,0.787-0.787,0.787h-4.163c-0.45,0-0.788-0.451-0.788-0.787L83.138,137.419L83.138,137.419z"/>
		<path d="M130.725,137.869c0-0.45,0.45-0.787,0.788-0.787h18.45c0.562,0,0.788,0.45,0.788,0.787v3.713
			c0,0.45-0.45,0.787-0.788,0.787h-13.387v7.425h11.25c0.45,0,0.787,0.45,0.787,0.788v3.711c0,0.562-0.45,0.789-0.787,0.789h-11.25
			v7.986h13.387c0.562,0,0.788,0.451,0.788,0.787v3.713c0,0.451-0.45,0.787-0.788,0.787h-18.337c-0.562,0-0.788-0.449-0.788-0.787
			C130.725,167.682,130.725,137.869,130.725,137.869z"/>
		<path d="M174.375,142.481H167.4c-0.562,0-0.788-0.45-0.788-0.788v-3.712c0-0.45,0.45-0.788,0.788-0.788h19.8
			c0.562,0,0.787,0.45,0.787,0.788v3.712c0,0.45-0.45,0.788-0.787,0.788h-6.975v25.538c0,0.449-0.45,0.787-0.788,0.787h-4.388
			c-0.45,0-0.787-0.451-0.787-0.787v-25.538H174.375z"/>
		<path d="M202.612,138.207c-0.225-0.675,0.225-1.125,0.788-1.125h4.163c0.45,0,0.675,0.337,0.788,0.675l4.725,18.113h0.225
			l7.2-18.675c0.112-0.337,0.337-0.562,0.675-0.562h0.788c0.45,0,0.675,0.225,0.675,0.562l7.2,18.675h0.225l4.612-18.113
			c0.112-0.337,0.45-0.675,0.788-0.675h4.162c0.675,0,1.013,0.45,0.787,1.125l-8.324,30.487c-0.113,0.451-0.45,0.676-0.788,0.676
			h-0.675c-0.45,0-0.675-0.225-0.675-0.562l-8.213-20.588h-0.225l-8.1,20.588c-0.113,0.338-0.337,0.562-0.675,0.562h-0.675
			c-0.45,0-0.675-0.338-0.788-0.676L202.612,138.207z"/>
		<path d="M272.588,136.631c9.112,0,16.312,7.312,16.312,16.425c0,9.112-7.2,16.313-16.312,16.313
			c-9.113,0-16.312-7.201-16.312-16.313C256.275,143.944,263.588,136.631,272.588,136.631z M272.588,163.406
			c5.737,0,10.462-4.613,10.462-10.462c0-5.737-4.725-10.575-10.462-10.575c-5.738,0-10.463,4.725-10.463,10.575
			C262.237,158.682,266.85,163.406,272.588,163.406z"/>
		<path d="M307.463,137.869c0-0.45,0.449-0.787,0.787-0.787h13.05c5.513,0,9.9,4.387,9.9,9.787c0,4.163-2.812,7.538-6.75,9.225
			l6.3,11.475c0.338,0.676,0,1.35-0.675,1.35h-4.726c-0.449,0-0.675-0.225-0.675-0.449l-5.962-12.037h-5.062v11.588
			c0,0.449-0.45,0.787-0.788,0.787H308.7c-0.562,0-0.788-0.451-0.788-0.787v-30.151H307.463z M320.737,151.481
			c2.362,0,4.5-2.025,4.5-4.613c0-2.362-2.024-4.387-4.5-4.387h-7.425v9H320.737L320.737,151.481z"/>
		<path d="M350.213,138.207c0-0.675,0.449-1.125,1.125-1.125h4.05c0.675,0,1.125,0.562,1.125,1.125v12.262l11.475-12.938
			c0.226-0.225,0.45-0.45,0.788-0.45h4.5c0.787,0,1.35,0.9,0.675,1.688l-11.7,13.387l12.713,15.188
			c0.449,0.676,0.112,1.574-0.788,1.574h-4.95c-0.449,0-0.675-0.225-0.787-0.336l-11.925-14.625v13.836
			c0,0.676-0.562,1.125-1.125,1.125h-4.05c-0.676,0-1.125-0.562-1.125-1.125V138.207L350.213,138.207z"/>
	</g>
	<g>
		<path d="M392.737,137.869c0-0.45,0.45-0.787,0.788-0.787h10.8c8.774,0,15.862,7.087,15.862,15.862s-7.088,15.863-15.862,15.863
			h-10.8c-0.45,0-0.788-0.451-0.788-0.787V137.869z M403.763,163.293c5.85,0,10.237-4.387,10.237-10.461
			c0-5.85-4.388-10.35-10.237-10.35h-5.175v20.812H403.763z"/>
	</g>
</g>
<g>
	<path fill="#010101" d="M44.572,147.26c-1.002,0-1.815-0.812-1.815-1.814v-12.7l-8.266,6.99c-0.765,0.648-1.909,0.552-2.558-0.214
		c-0.647-0.765-0.551-1.91,0.214-2.558l14.24-12.043v20.524C46.387,146.447,45.575,147.26,44.572,147.26z"/>
	<path fill="#010101" d="M44.606,179.428c-0.718,0-1.819-0.768-5.813-3.55c-2.458-1.711-5.857-4.109-10.104-7.128
		c-7.311-5.195-14.578-10.413-14.578-10.413c-0.814-0.585-1-1.719-0.416-2.533c0.585-0.813,1.719-1.001,2.533-0.415
		c8.399,6.029,21.082,15.071,26.529,18.82v-28.764c0-1.003,0.812-1.815,1.815-1.815s1.815,0.812,1.815,1.815v32.096
		c0,0.681-0.384,1.31-0.99,1.62C45.098,179.315,44.879,179.428,44.606,179.428z"/>
	<path fill="#010101" d="M1.013,181.079v-27.77c0-1.002,0.812-1.814,1.815-1.814s1.815,0.812,1.815,1.814v20.702l8.381-6.006
		c0.815-0.582,1.949-0.396,2.533,0.418c0.584,0.815,0.396,1.948-0.418,2.532L1.013,181.079z"/>
	<path fill="#010101" d="M2.828,155.125c-1.002,0-1.815-0.812-1.815-1.815v-24.472c0-0.681,0.384-1.31,0.989-1.62
		c1.089-0.56,1.089-0.56,6.604,3.282c2.458,1.712,5.857,4.11,10.104,7.129c7.311,5.195,14.578,10.413,14.578,10.413
		c0.814,0.585,1,1.719,0.417,2.533c-0.584,0.815-1.719,0.999-2.533,0.415c-8.399-6.029-21.082-15.072-26.529-18.821v21.141
		C4.643,154.312,3.83,155.125,2.828,155.125z"/>
</g>
</svg>
