<?xml version="1.0" encoding="utf-8"?>
<!-- Generator: Adobe Illustrator 21.0.1, SVG Export Plug-In . SVG Version: 6.00 Build 0)  -->
<svg version="1.1" id="Layer_1" xmlns="http://www.w3.org/2000/svg" xmlns:xlink="http://www.w3.org/1999/xlink" x="0px" y="0px"
	 viewBox="0 0 326.2 31.8" style="enable-background:new 0 0 326.2 31.8;" xml:space="preserve">
<style type="text/css">
	.st0{fill:#FFFFFF;}
</style>
<g>
	<g>
		<path class="st0" d="M0,0.9c0-0.4,0.4-0.8,0.8-0.8h1.1l18.3,19.4l0,0V1.3c0-0.4,0.4-0.8,0.8-0.8h4c0.4,0,0.8,0.4,0.8,0.8v29.6
			c0,0.4-0.4,0.8-0.8,0.8h-0.9L5.7,11.5l0,0v18.9c0,0.4-0.4,0.8-0.8,0.8h-4c-0.4,0-0.8-0.4-0.8-0.8V0.9H0z"/>
		<path class="st0" d="M46.1,1.3c0-0.4,0.4-0.8,0.8-0.8h17.9c0.5,0,0.8,0.4,0.8,0.8v3.6c0,0.4-0.4,0.8-0.8,0.8h-13v7.2h10.9
			c0.4,0,0.8,0.4,0.8,0.8v3.6c0,0.5-0.4,0.8-0.8,0.8H51.8v7.7h13c0.5,0,0.8,0.4,0.8,0.8v3.6c0,0.4-0.4,0.8-0.8,0.8H46.9
			c-0.5,0-0.8-0.4-0.8-0.8V1.3z"/>
		<path class="st0" d="M88.3,5.8h-6.7c-0.5,0-0.8-0.4-0.8-0.8V1.4c0-0.4,0.4-0.8,0.8-0.8h19.2c0.5,0,0.8,0.4,0.8,0.8V5
			c0,0.4-0.4,0.8-0.8,0.8h-6.7v24.7c0,0.4-0.4,0.8-0.8,0.8h-4.2c-0.4,0-0.8-0.4-0.8-0.8V5.8z"/>
		<path class="st0" d="M115.6,1.6c-0.2-0.6,0.2-1.1,0.8-1.1h4c0.4,0,0.7,0.3,0.8,0.6l4.6,17.5h0.2l7-18.1c0.1-0.3,0.3-0.5,0.7-0.5
			h0.8c0.4,0,0.7,0.2,0.7,0.5l7,18.1h0.2l4.5-17.5c0.1-0.3,0.4-0.6,0.8-0.6h4c0.6,0,1,0.4,0.8,1.1l-8.3,29.5
			c-0.1,0.4-0.4,0.6-0.8,0.6h-0.7c-0.4,0-0.7-0.2-0.7-0.5l-7.9-19.9h-0.2l-7.8,19.9c-0.1,0.3-0.3,0.5-0.7,0.5h-0.7
			c-0.4,0-0.7-0.3-0.8-0.6L115.6,1.6z"/>
		<path class="st0" d="M183.3,0.1c8.8,0,15.8,7.1,15.8,15.9s-7,15.8-15.8,15.8s-15.8-7-15.8-15.8S174.6,0.1,183.3,0.1z M183.3,26
			c5.5,0,10.1-4.5,10.1-10.1c0-5.5-4.6-10.2-10.1-10.2s-10.1,4.6-10.1,10.2C173.3,21.5,177.8,26,183.3,26z"/>
		<path class="st0" d="M217.1,1.3c0-0.4,0.4-0.8,0.8-0.8h12.6c5.3,0,9.6,4.2,9.6,9.5c0,4-2.7,7.3-6.5,8.9l6,11.2
			c0.3,0.6,0,1.3-0.7,1.3h-4.6c-0.4,0-0.6-0.2-0.7-0.4l-5.8-11.6h-4.9v11.2c0,0.4-0.4,0.8-0.8,0.8h-4c-0.5,0-0.8-0.4-0.8-0.8V1.3
			H217.1z M230,14.5c2.3,0,4.4-2,4.4-4.5c0-2.3-2-4.3-4.4-4.3h-7.2v8.7L230,14.5L230,14.5z"/>
		<path class="st0" d="M258.5,1.6c0-0.6,0.4-1.1,1.1-1.1h3.9c0.6,0,1.1,0.5,1.1,1.1v11.9L275.7,1c0.2-0.2,0.4-0.4,0.8-0.4h4.4
			c0.8,0,1.3,0.9,0.7,1.6l-11.5,12.9l12.3,14.7c0.4,0.6,0.1,1.5-0.8,1.5h-4.8c-0.4,0-0.7-0.2-0.8-0.3l-11.5-14.2v13.4
			c0,0.6-0.5,1.1-1.1,1.1h-3.9c-0.6,0-1.1-0.5-1.1-1.1L258.5,1.6L258.5,1.6z"/>
	</g>
	<g>
		<path class="st0" d="M299.6,1.3c0-0.4,0.4-0.8,0.8-0.8h10.4c8.5,0,15.4,6.9,15.4,15.3c0,8.5-6.9,15.4-15.4,15.4h-10.4
			c-0.4,0-0.8-0.4-0.8-0.8V1.3z M310.3,25.9c5.7,0,9.9-4.3,9.9-10.1c0-5.7-4.2-10-9.9-10h-5v20.1H310.3z"/>
	</g>
</g>
</svg>
