<?xml version="1.0" encoding="UTF-8"?>
<svg width="26px" height="25px" viewBox="0 0 26 25" version="1.1" xmlns="http://www.w3.org/2000/svg" xmlns:xlink="http://www.w3.org/1999/xlink">
    <!-- Generator: Sketch 42 (36781) - http://www.bohemiancoding.com/sketch -->
    <title>budicon-internet-network</title>
    <desc>Created with Sketch.</desc>
    <defs></defs>
    <g id="Symbols" stroke="none" stroke-width="1" fill="none" fill-rule="evenodd">
        <g id="Tab-Bar" transform="translate(-127.000000, -12.000000)">
            <g id="budicon-internet-network" transform="translate(127.222222, 12.000000)">
                <g id="Group">
                    <path d="M13.93,12.07 C13.971,12.207 14,12.35 14,12.5 C14,13.327 13.327,14 12.5,14 C12.35,14 12.207,13.971 12.07,13.93 C12.256,14.547 12.823,15 13.5,15 C14.327,15 15,14.327 15,13.5 C15,12.823 14.547,12.256 13.93,12.07 L13.93,12.07 Z" id="Shape" fill="#F5F4FF"></path>
                    <path d="M19,21.5 C19,22.328 18.328,23 17.5,23 C17.349,23 17.207,22.971 17.07,22.93 C17.256,23.547 17.822,24 18.5,24 C19.328,24 20,23.328 20,22.5 C20,21.822 19.547,21.256 18.93,21.07 C18.971,21.207 19,21.349 19,21.5 Z" id="Shape" fill="#F5F4FF"></path>
                    <path d="M23,8 C22.668,8 22.36,8.088 22.085,8.231 L13.983,2.173 C13.988,2.116 14,2.06 14,2 C14,0.896 13.105,0 12,0 C10.895,0 10,0.896 10,2 C10,2.085 10.015,2.166 10.025,2.248 L2.95,8.25 C2.666,8.096 2.346,8 2,8 C0.895,8 0,8.896 0,10 C0,10.979 0.704,11.79 1.632,11.963 L5.028,21.665 C5.029,21.668 5.032,21.669 5.033,21.672 C5.015,21.779 5,21.888 5,22 C5,23.104 5.895,24 7,24 C7.912,24 8.673,23.386 8.913,22.551 L16.045,22.947 C16.257,24.114 17.273,25 18.5,25 C19.881,25 21,23.881 21,22.5 C21,21.822 20.728,21.209 20.289,20.758 L23.367,11.963 C24.296,11.79 25,10.979 25,10 C25,8.896 24.105,8 23,8 L23,8 Z M12,1 C12.551,1 13,1.449 13,2 C13,2.551 12.551,3 12,3 C11.449,3 11,2.551 11,2 C11,1.449 11.449,1 12,1 L12,1 Z M10.425,3.219 C10.791,3.691 11.357,4 12,4 C12.672,4 13.264,3.666 13.627,3.156 L21.326,8.911 C21.121,9.225 21,9.598 21,10 C21,10.067 21.013,10.131 21.02,10.197 L15.619,12.187 C15.178,11.477 14.397,11 13.5,11 C12.552,11 11.737,11.534 11.313,12.312 L3.991,10.084 C3.993,10.055 4,10.028 4,10 C4,9.607 3.883,9.244 3.687,8.935 L10.425,3.219 L10.425,3.219 Z M15,13.5 C15,14.327 14.327,15 13.5,15 C12.673,15 12,14.327 12,13.5 C12,12.673 12.673,12 13.5,12 C14.327,12 15,12.673 15,13.5 L15,13.5 Z M1,10 C1,9.449 1.449,9 2,9 C2.551,9 3,9.449 3,10 C3,10.551 2.551,11 2,11 C1.449,11 1,10.551 1,10 L1,10 Z M7,23 C6.448,23 6,22.552 6,22 C6,21.448 6.448,21 7,21 C7.552,21 8,21.448 8,22 C8,22.552 7.552,23 7,23 L7,23 Z M18.5,24 C17.672,24 17,23.328 17,22.5 C17,21.672 17.672,21 18.5,21 C19.328,21 20,21.672 20,22.5 C20,23.328 19.328,24 18.5,24 L18.5,24 Z M19.431,20.183 C19.143,20.067 18.83,20 18.5,20 C17.31,20 16.318,20.833 16.066,21.947 L8.946,21.551 C8.741,20.664 7.95,20 7,20 C6.493,20 6.035,20.195 5.682,20.506 L2.662,11.879 C3.098,11.725 3.462,11.428 3.7,11.041 L11.023,13.27 C11.016,13.346 11,13.421 11,13.5 C11,14.881 12.119,16 13.5,16 C14.881,16 16,14.881 16,13.5 C16,13.372 15.981,13.249 15.962,13.126 L21.358,11.138 C21.595,11.48 21.938,11.738 22.338,11.879 L19.431,20.183 L19.431,20.183 Z M23,11 C22.449,11 22,10.551 22,10 C22,9.449 22.449,9 23,9 C23.551,9 24,9.449 24,10 C24,10.551 23.551,11 23,11 L23,11 Z" id="Shape" fill="#79B4E2"></path>
                </g>
            </g>
        </g>
    </g>
</svg>