<?xml version="1.0" encoding="UTF-8"?>
<svg width="18px" height="22px" viewBox="0 0 18 22" version="1.1" xmlns="http://www.w3.org/2000/svg" xmlns:xlink="http://www.w3.org/1999/xlink">
    <!-- Generator: Sketch 42 (36781) - http://www.bohemiancoding.com/sketch -->
    <title>budicon-user</title>
    <desc>Created with Sketch.</desc>
    <defs></defs>
    <g id="Symbols" stroke="none" stroke-width="1" fill="none" fill-rule="evenodd">
        <g id="Tab-Bar" transform="translate(-330.000000, -14.000000)">
            <g id="budicon-user" transform="translate(330.000000, 14.000000)">
                <g id="Group">
                    <path d="M9,1 C8.474,1 7.977,1.104 7.5,1.255 C9.521,1.897 11,3.769 11,6 C11,8.231 9.521,10.103 7.5,10.745 C7.977,10.896 8.474,11 9,11 C11.757,11 14,8.757 14,6 C14,3.243 11.757,1 9,1 L9,1 Z" id="Shape" fill="#F5F4FF"></path>
                    <path d="M14,20 L14,22 L17.5,22 L17.5,20 C17.5,15.582 13.918,12 9.5,12 C8.987,12 7.986,12.053 7.5,12.145 C11.201,12.848 14,16.095 14,20 L14,20 Z" id="Shape" fill="#F5F4FF"></path>
                    <path d="M11.62,11.392 C13.619,10.418 15,8.373 15,6 C15,2.686 12.314,0 9,0 C5.686,0 3,2.686 3,6 C3,8.373 4.381,10.418 6.38,11.392 C2.692,12.517 0,15.949 0,20 L0,21.5 C0,21.776 0.224,22 0.5,22 C0.776,22 1,21.776 1,21.5 L1,20 C1,15.589 4.589,12 9,12 C13.411,12 17,15.589 17,20 L17,21.5 C17,21.776 17.224,22 17.5,22 C17.776,22 18,21.776 18,21.5 L18,20 C18,15.948 15.308,12.516 11.62,11.392 L11.62,11.392 Z M4,6 C4,3.243 6.243,1 9,1 C11.757,1 14,3.243 14,6 C14,8.757 11.757,11 9,11 C6.243,11 4,8.757 4,6 L4,6 Z" id="Shape" fill="#79B4E2"></path>
                </g>
            </g>
        </g>
    </g>
</svg>