<?xml version="1.0" encoding="UTF-8"?>
<svg width="25px" height="25px" viewBox="0 0 25 25" version="1.1" xmlns="http://www.w3.org/2000/svg" xmlns:xlink="http://www.w3.org/1999/xlink">
    <!-- Generator: Sketch 42 (36781) - http://www.bohemiancoding.com/sketch -->
    <title>budicon-vintage-wall-clock</title>
    <desc>Created with Sketch.</desc>
    <defs></defs>
    <g id="Symbols" stroke="none" stroke-width="1" fill="none" fill-rule="evenodd">
        <g id="Chat-section" transform="translate(-254.000000, -9.000000)">
            <g id="budicon-vintage-wall-clock" transform="translate(254.000000, 9.000000)">
                <g id="Group">
                    <path d="M17.275,2.051 C19.558,4.154 21,7.158 21,10.5 C21,16.841 15.841,22 9.5,22 C7.795,22 6.182,21.617 4.725,20.949 C6.775,22.837 9.501,24 12.5,24 C18.841,24 24,18.841 24,12.5 C24,7.864 21.237,3.869 17.275,2.051 L17.275,2.051 Z" id="Shape" fill="#F5F4FF"></path>
                    <g id="Shape" fill="#79B4E2">
                        <path d="M12.5,0 C5.596,0 0,5.596 0,12.5 C0,19.404 5.596,25 12.5,25 C19.404,25 25,19.404 25,12.5 C25,5.596 19.404,0 12.5,0 L12.5,0 Z M12.5,24 C6.159,24 1,18.841 1,12.5 C1,6.159 6.159,1 12.5,1 C18.841,1 24,6.159 24,12.5 C24,18.841 18.841,24 12.5,24 L12.5,24 Z"></path>
                        <path d="M12.5,4 C12.776,4 13,3.776 13,3.5 L13,2.5 C13,2.224 12.776,2 12.5,2 C12.224,2 12,2.224 12,2.5 L12,3.5 C12,3.776 12.224,4 12.5,4 L12.5,4 Z"></path>
                        <path d="M12.5,21 C12.224,21 12,21.224 12,21.5 L12,22.5 C12,22.776 12.224,23 12.5,23 C12.776,23 13,22.776 13,22.5 L13,21.5 C13,21.224 12.776,21 12.5,21 L12.5,21 Z"></path>
                        <path d="M3.5,12 L2.5,12 C2.224,12 2,12.224 2,12.5 C2,12.776 2.224,13 2.5,13 L3.5,13 C3.776,13 4,12.776 4,12.5 C4,12.224 3.776,12 3.5,12 L3.5,12 Z"></path>
                        <path d="M22.5,12 L21.5,12 C21.224,12 21,12.224 21,12.5 C21,12.776 21.224,13 21.5,13 L22.5,13 C22.776,13 23,12.776 23,12.5 C23,12.224 22.776,12 22.5,12 L22.5,12 Z"></path>
                        <path d="M5.782,5.075 C5.587,4.88 5.27,4.88 5.075,5.075 C4.88,5.27 4.88,5.587 5.075,5.782 L5.782,6.489 C5.977,6.684 6.294,6.684 6.489,6.489 C6.684,6.294 6.684,5.977 6.489,5.782 L5.782,5.075 L5.782,5.075 Z"></path>
                        <path d="M19.218,18.51 C19.023,18.315 18.706,18.315 18.511,18.51 C18.316,18.705 18.316,19.022 18.511,19.217 L19.218,19.924 C19.413,20.119 19.73,20.119 19.925,19.924 C20.12,19.729 20.12,19.412 19.925,19.217 L19.218,18.51 L19.218,18.51 Z"></path>
                        <path d="M5.782,18.51 L5.075,19.217 C4.88,19.412 4.88,19.729 5.075,19.924 C5.27,20.119 5.587,20.119 5.782,19.924 L6.489,19.217 C6.684,19.022 6.684,18.705 6.489,18.51 C6.294,18.315 5.978,18.315 5.782,18.51 L5.782,18.51 Z"></path>
                        <path d="M19.218,5.075 L18.511,5.782 C18.316,5.977 18.316,6.294 18.511,6.489 C18.706,6.684 19.023,6.684 19.218,6.489 L19.925,5.782 C20.12,5.587 20.12,5.27 19.925,5.075 C19.729,4.88 19.413,4.88 19.218,5.075 L19.218,5.075 Z"></path>
                        <path d="M17.5,12 L13,12 L13,7.5 C13,7.224 12.776,7 12.5,7 C12.224,7 12,7.224 12,7.5 L12,12.5 C12,12.776 12.224,13 12.5,13 L17.5,13 C17.776,13 18,12.776 18,12.5 C18,12.224 17.776,12 17.5,12 L17.5,12 Z"></path>
                    </g>
                </g>
            </g>
        </g>
    </g>
</svg>